<svg width="96" height="95" viewBox="0 0 96 95" fill="none" xmlns="http://www.w3.org/2000/svg">
<path d="M83.8 0C84.2 0 86.9 2.3 89.9 5.2C93.8 9.1 95 10.9 94.4 12C93.9 12.8 90.4 16.5 79.5 26.9L82 32.2C84.2 36.8 84.5 38.9 84.5 48C84.5 57.4 84.2 59.1 81.8 64.3C80.2 67.5 78.3 70 77.5 70C76.6 70 76.2 69.3 76.4 68.2C76.7 67.3 78 63.8 79.4 60.5C81.1 56.4 82 52.6 82 48.7C82 45.6 81.5 41.1 80.9 38.7C80.4 36.4 79.1 33.4 76.3 29.5L71.4 34.2C68.7 36.8 65.7 38.9 64.8 39C63.3 39 63.2 39.4 64 41.5C64.6 42.9 65 45.9 65 48.2C65 51 64.1 54 62.5 56.7C61.1 59.1 60 62 60 63.2C60 64.8 63.9 69.4 85 90.5L89.2 86.3C91.6 83.9 94.1 82 94.8 82C95.4 82 96 82.6 96 83.2C96 83.9 93.8 86.6 91.2 89.3C88.6 91.9 85.8 94 85 94C84.2 94 80.2 90.8 68.9 79.5L63.7 82C59.8 83.8 56.4 84.5 50 84.8C43.3 85.1 40.4 84.8 36 83.2C33 82 29.4 80.3 28.1 79.3C26.7 78.3 26 77 26.3 76.2C26.8 75.3 28.6 75.9 33.2 78.2C38.7 81.2 40.1 81.5 47.9 81.5C54.7 81.5 57.5 81 66.5 77L61.3 71.7C58.4 68.9 56 65.7 56 64.7C56 63.3 55.6 63.2 53.5 64C52.1 64.5 49.5 65 47.8 65C46 65 42.4 63.9 39.8 62.5C37.1 61.1 34 60 32.8 60C31.5 60.1 28.9 61.5 27 63.2C25.1 64.9 19.3 70.4 4.9 84.5L8.9 88.5C11.2 90.7 13 93.1 13 93.7C13 94.4 12.4 95 11.8 95C11.1 95 8.4 92.8 5.7 90.2C3.1 87.6 1 85 1 84.5C1 83.9 4.5 80 16.5 68.1L14 62.8C11.9 58.3 11.5 56 11.5 48C11.5 40 11.9 37.7 14 33.1C15.4 30.2 17.1 27.4 17.8 26.9C18.4 26.4 19.5 26.2 20 26.5C20.6 26.8 19.7 29.4 18 32.7C16.2 36.2 14.8 40.9 14.4 44.5C13.9 49.2 14.2 52.1 15.9 57.7C17 61.7 18.3 65.2 18.8 65.5C19.2 65.7 21.5 63.7 24 61C26.9 57.9 29.4 56 30.8 56C32.7 56 32.8 55.7 32 54C31.5 52.9 31 50.2 31 48C31 45.8 32 42.1 33.2 39.7C34.3 37.4 35.4 34.4 35.6 33C35.8 31 33.3 28 10.5 4.8L6.5 9.5C4.3 12 1.9 14.1 1.3 14C0.6 14 0 13.4 0 12.7C0 12.1 2.2 9.4 4.8 6.7C7.4 4.1 10.2 2 11 2C11.8 1.9 15.8 5.3 27 17L32.8 14.3C37 12.3 40.5 11.4 46 11.2C50.9 10.9 55.4 11.3 59 12.3C62 13.2 65.8 14.9 67.3 16.2C68.9 17.5 69.8 18.8 69.3 19.3C68.9 19.7 65.8 18.8 62.5 17.4C59.1 15.8 53.9 14.5 50.5 14.2C46.7 13.9 42.5 14.3 39 15.3C36 16.2 32.6 17.6 31.5 18.4C29.6 19.8 29.6 20 34.2 24.7C36.8 27.3 39 30.3 39 31.2C39 32.5 39.5 32.8 40.8 32.3C41.7 31.9 45.2 31.5 48.5 31.5C52.9 31.5 55.4 32.1 57.5 33.4C59.2 34.5 61.6 35.4 63 35.5C64.8 35.5 68.1 33.1 75.5 26.2C81 21 86.9 15.5 91.5 11L87.3 6.8C84.9 4.4 83 1.9 83 1.2C83 0.600001 83.3 0 83.8 0Z" fill="#27211E"/>
<path d="M54 47.0488H51.6306C51.4522 48.0976 50.9936 48.7317 50.1783 48.7317C48.7006 48.7317 47.8599 47 45.5669 47C43.3503 47 42.1783 48.3659 42 50.9756H44.3694C44.5478 49.9024 45.0064 49.2683 45.8471 49.2683C47.3248 49.2683 48.1146 51 50.4586 51C52.6242 51 53.8217 49.6341 54 47.0488Z" fill="white"/>
</svg>
