<svg width="480" height="480" viewBox="0 0 480 480" fill="none" xmlns="http://www.w3.org/2000/svg">
<g clip-path="url(#clip0)">
<rect width="480" height="480" fill="white"/>
<path d="M411.814 405.915C380.901 436.828 333.957 445.946 282.968 435.595C231.984 425.245 177.019 395.435 130.182 348.598C83.3449 301.761 53.5358 246.797 43.1856 195.812C32.8345 144.824 41.952 97.8796 72.865 66.9666C103.778 36.0536 150.722 26.9361 201.711 37.2872C252.695 47.6374 307.66 77.4465 354.497 124.284C401.334 171.121 431.143 226.085 441.493 277.07C451.844 328.058 442.727 375.002 411.814 405.915Z" fill="black" stroke="black"/>
<mask id="path-2-inside-1" fill="white">
<path d="M415.401 405.157C353.29 467.268 226.667 441.347 132.581 347.261C38.4943 253.174 12.5729 126.551 74.6838 64.4402C136.795 2.32933 263.418 28.2507 357.504 122.337C451.591 216.424 477.512 343.047 415.401 405.157ZM142.827 132.584C105.561 169.85 121.114 245.824 177.565 302.276C234.017 358.728 309.991 374.281 347.258 337.014C384.524 299.747 368.971 223.774 312.519 167.322C256.068 110.87 180.094 95.3171 142.827 132.584Z"/>
</mask>
<path d="M415.401 405.157C353.29 467.268 226.667 441.347 132.581 347.261C38.4943 253.174 12.5729 126.551 74.6838 64.4402C136.795 2.32933 263.418 28.2507 357.504 122.337C451.591 216.424 477.512 343.047 415.401 405.157ZM142.827 132.584C105.561 169.85 121.114 245.824 177.565 302.276C234.017 358.728 309.991 374.281 347.258 337.014C384.524 299.747 368.971 223.774 312.519 167.322C256.068 110.87 180.094 95.3171 142.827 132.584Z" fill="white" stroke="black" stroke-width="2" mask="url(#path-2-inside-1)"/>
<mask id="path-3-inside-2" fill="white">
<path d="M415.401 405.157C430.17 390.389 440.387 371.358 445.471 349.152C450.554 326.947 450.403 302 445.027 275.738L365.033 259.362C368.259 275.12 368.349 290.088 365.299 303.411C362.249 316.734 356.119 328.153 347.258 337.014L415.401 405.157Z"/>
</mask>
<path d="M415.401 405.157C430.17 390.389 440.387 371.358 445.471 349.152C450.554 326.947 450.403 302 445.027 275.738L365.033 259.362C368.259 275.12 368.349 290.088 365.299 303.411C362.249 316.734 356.119 328.153 347.258 337.014L415.401 405.157Z" fill="white" stroke="black" stroke-width="2" mask="url(#path-3-inside-2)"/>
<path d="M386.895 157.141C427.324 209.102 448.044 264.9 448.882 313.094C449.721 361.291 430.682 401.831 391.669 423.398C352.657 444.965 300.957 443.529 248.848 423.675C196.742 403.823 144.285 365.571 103.855 313.609C63.4257 261.648 42.7063 205.85 41.8678 157.656C41.0292 109.459 60.0684 68.9187 99.0809 47.352C138.093 25.7853 189.793 27.2207 241.902 47.0744C294.008 66.9269 346.465 105.179 386.895 157.141Z" fill="white" stroke="black"/>
<mask id="path-5-inside-3" fill="white">
<path d="M387.333 156.899C421.249 200.49 442.729 249.028 448.112 294.243C453.496 339.457 442.449 378.551 416.854 404.862C391.259 431.173 352.7 443.075 307.748 438.538C262.795 434.001 214.229 413.307 170.325 379.982C126.422 346.657 89.897 302.762 66.9742 255.777C44.0514 208.793 36.1489 161.625 44.6133 122.311C53.0776 82.9964 77.3851 53.9684 113.394 40.1727C149.403 26.3769 194.885 28.6669 242.091 46.6525L245.375 235.375L387.333 156.899Z"/>
</mask>
<path d="M387.333 156.899C421.249 200.49 442.729 249.028 448.112 294.243C453.496 339.457 442.449 378.551 416.854 404.862C391.259 431.173 352.7 443.075 307.748 438.538C262.795 434.001 214.229 413.307 170.325 379.982C126.422 346.657 89.897 302.762 66.9742 255.777C44.0514 208.793 36.1489 161.625 44.6133 122.311C53.0776 82.9964 77.3851 53.9684 113.394 40.1727C149.403 26.3769 194.885 28.6669 242.091 46.6525L245.375 235.375L387.333 156.899Z" fill="white" stroke="black" stroke-width="2" mask="url(#path-5-inside-3)"/>
<mask id="path-6-inside-4" fill="white">
<path d="M387.333 156.899C416.327 194.164 436.346 235.195 444.856 274.804C453.366 314.412 449.985 350.818 435.142 379.419C420.298 408.019 394.659 427.529 361.465 435.482C328.271 443.435 289.014 439.473 248.659 424.097C208.303 408.722 168.661 382.623 134.746 349.102C100.83 315.58 74.1651 276.142 58.1216 235.773C42.0782 195.405 37.3772 155.919 44.6133 122.311C51.8493 88.7016 70.6973 62.4785 98.7739 46.9574L245.375 235.375L387.333 156.899Z"/>
</mask>
<path d="M387.333 156.899C416.327 194.164 436.346 235.195 444.856 274.804C453.366 314.412 449.985 350.818 435.142 379.419C420.298 408.019 394.659 427.529 361.465 435.482C328.271 443.435 289.014 439.473 248.659 424.097C208.303 408.722 168.661 382.623 134.746 349.102C100.83 315.58 74.1651 276.142 58.1216 235.773C42.0782 195.405 37.3772 155.919 44.6133 122.311C51.8493 88.7016 70.6973 62.4785 98.7739 46.9574L245.375 235.375L387.333 156.899Z" fill="white" stroke="black" stroke-width="2" mask="url(#path-6-inside-4)"/>
<mask id="path-7-inside-5" fill="white">
<path d="M387.333 156.899C408.915 184.637 425.616 214.584 436.245 244.601C446.874 274.618 451.167 303.965 448.819 330.546C446.471 357.128 437.539 380.288 422.661 398.373C407.783 416.458 387.326 429.022 362.75 435.167C338.175 441.313 310.087 440.889 280.493 433.925C250.9 426.961 220.529 413.629 191.551 394.882C162.572 376.134 135.701 352.433 112.855 325.471C90.0096 298.509 71.7531 268.951 59.3895 238.908L245.375 235.375L387.333 156.899Z"/>
</mask>
<path d="M387.333 156.899C408.915 184.637 425.616 214.584 436.245 244.601C446.874 274.618 451.167 303.965 448.819 330.546C446.471 357.128 437.539 380.288 422.661 398.373C407.783 416.458 387.326 429.022 362.75 435.167C338.175 441.313 310.087 440.889 280.493 433.925C250.9 426.961 220.529 413.629 191.551 394.882C162.572 376.134 135.701 352.433 112.855 325.471C90.0096 298.509 71.7531 268.951 59.3895 238.908L245.375 235.375L387.333 156.899Z" fill="white" stroke="black" stroke-width="2" mask="url(#path-7-inside-5)"/>
<mask id="path-8-inside-6" fill="white">
<path d="M448.338 295.822C453.188 339.48 442.64 377.33 418.385 403.308C394.131 429.286 357.573 441.887 314.571 439.093L245.403 235.387L448.338 295.822Z"/>
</mask>
<path d="M448.338 295.822C453.188 339.48 442.64 377.33 418.385 403.308C394.131 429.286 357.573 441.887 314.571 439.093L245.403 235.387L448.338 295.822Z" fill="white" stroke="black" stroke-width="2" mask="url(#path-8-inside-6)"/>
<path d="M330.656 188.276C355.04 219.61 367.531 253.249 368.036 282.294C368.542 311.341 357.066 335.74 333.59 348.712C310.115 361.685 278.986 360.829 247.574 348.861C216.165 336.894 184.532 313.832 160.147 282.498C135.763 251.164 123.272 217.524 122.767 188.48C122.261 159.433 133.738 135.033 157.213 122.061C180.688 109.089 211.817 109.944 243.229 121.913C274.638 133.88 306.272 156.941 330.656 188.276Z" fill="white" stroke="black"/>
<line x1="124.432" y1="243.51" x2="121.603" y2="246.339" stroke="white"/>
<path d="M383.828 292.413C365.725 310.515 338.307 315.96 308.534 310.031C278.764 304.103 246.702 286.809 219.425 259.532C192.149 232.256 174.855 200.193 168.927 170.424C162.997 140.651 168.442 113.232 186.545 95.1301C204.647 77.0278 232.065 71.5827 261.838 77.5119C291.608 83.4403 323.671 100.734 350.947 128.011C378.224 155.287 395.517 187.35 401.446 217.119C407.375 246.893 401.93 274.311 383.828 292.413Z" fill="black" stroke="black"/>
<path d="M385.595 290.645C367.591 308.649 340.263 314.007 310.553 308.014C280.847 302.022 248.823 284.688 221.546 257.411C194.269 230.134 176.936 198.111 170.944 168.405C164.951 138.695 170.309 111.366 188.312 93.3625C206.316 75.3587 233.645 70.001 263.355 75.9941C293.061 81.9862 325.084 99.3197 352.361 126.597C379.638 153.873 396.971 185.897 402.964 215.603C408.957 245.313 403.599 272.642 385.595 290.645Z" fill="white" stroke="black"/>
<path d="M251.278 227.549C236.957 213.279 227.848 196.505 224.68 180.939C221.511 165.37 224.291 151.072 233.649 141.64C243.007 132.207 257.256 129.338 272.809 132.424C288.357 135.51 305.147 144.542 319.468 158.812C333.788 173.082 342.897 189.857 346.066 205.422C349.235 220.992 346.454 235.289 337.096 244.722C327.739 254.154 313.489 257.024 297.936 253.937C282.388 250.852 265.599 241.819 251.278 227.549Z" fill="white" stroke="black"/>
<path d="M231.881 142.701C250.905 123.524 289.644 131.211 318.406 159.871C347.167 188.531 355.061 227.311 336.036 246.489" stroke="black"/>
<path d="M250.506 228.321C236.185 214.05 227.076 197.276 223.908 181.711C220.739 166.141 223.52 151.844 232.878 142.411C242.235 132.979 256.484 130.109 272.037 133.195C287.586 136.281 304.375 145.313 318.696 159.584C333.017 173.854 342.126 190.628 345.294 206.194C348.463 221.763 345.682 236.06 336.325 245.493C326.967 254.926 312.718 257.795 297.165 254.709C281.616 251.623 264.827 242.591 250.506 228.321Z" fill="white" stroke="black"/>
<path d="M310.415 169.792C296.092 155.523 286.953 138.78 283.737 123.265C280.521 107.745 283.238 93.5188 292.523 84.1634C301.807 74.8081 315.991 72.0055 331.499 75.1406C347.003 78.2747 363.765 87.3367 378.088 101.606C392.411 115.875 401.55 132.618 404.766 148.133C407.983 163.653 405.265 177.879 395.98 187.235C386.696 196.59 372.512 199.393 357.004 196.258C341.5 193.123 324.738 184.061 310.415 169.792Z" fill="black" stroke="black"/>
<path d="M269.402 131.754C284.706 140.469 299.687 151.794 313.505 165.564C326.934 178.946 338.067 193.441 346.745 208.28" stroke="black"/>
<path d="M269.402 132.754C284.706 141.469 299.687 152.794 313.505 166.563C326.934 179.945 338.067 194.441 346.745 209.279" stroke="black"/>
<path d="M268.402 132.754C283.706 141.469 298.687 152.794 312.505 166.563C325.934 179.945 337.067 194.441 345.745 209.279" stroke="black"/>
<path d="M311.829 168.378C297.506 154.109 288.367 137.366 285.151 121.851C281.935 106.331 284.652 92.1047 293.937 82.7494C303.222 73.3941 317.405 70.5914 332.914 73.7265C348.417 76.8607 365.179 85.9226 379.502 100.192C393.825 114.461 402.964 131.204 406.18 146.719C409.397 162.239 406.679 176.465 397.395 185.821C388.11 195.176 373.926 197.979 358.418 194.843C342.914 191.709 326.152 182.647 311.829 168.378Z" fill="white" stroke="black"/>
<path d="M341.381 139.464C338.65 136.743 336.921 133.562 336.315 130.639C335.708 127.712 336.235 125.107 337.911 123.418C339.587 121.73 342.184 121.187 345.109 121.778C348.03 122.369 351.214 124.083 353.945 126.805C356.677 129.526 358.406 132.706 359.012 135.629C359.619 138.557 359.092 141.162 357.416 142.85C355.74 144.539 353.143 145.081 350.218 144.49C347.297 143.9 344.113 142.185 341.381 139.464Z" fill="black" stroke="black"/>
<path d="M339.967 140.878C337.236 138.157 335.507 134.976 334.901 132.054C334.294 129.126 334.821 126.521 336.497 124.832C338.173 123.144 340.77 122.601 343.695 123.193C346.616 123.783 349.8 125.498 352.531 128.219C355.263 130.94 356.992 134.12 357.598 137.043C358.205 139.971 357.678 142.576 356.002 144.264C354.326 145.953 351.729 146.496 348.804 145.904C345.883 145.314 342.699 143.599 339.967 140.878Z" fill="white" stroke="black"/>
<path d="M390.6 90.6379C387.621 87.6697 385.734 84.199 385.072 81.0065C384.41 77.8093 384.983 74.9556 386.821 73.1026C388.659 71.2497 391.503 70.6585 394.697 71.3042C397.886 71.9489 401.359 73.8205 404.338 76.7888C407.317 79.757 409.204 83.2277 409.866 86.4202C410.529 89.6174 409.955 92.4711 408.117 94.3241C406.279 96.177 403.435 96.7682 400.241 96.1226C397.052 95.4778 393.579 93.6062 390.6 90.6379Z" fill="black" stroke="black"/>
<path d="M392.014 89.2239C389.035 86.2556 387.148 82.785 386.486 79.5924C385.824 76.3953 386.397 73.5415 388.235 71.6886C390.073 69.8356 392.917 69.2444 396.111 69.8901C399.3 70.5348 402.773 72.4065 405.752 75.3747C408.731 78.343 410.618 81.8136 411.28 85.0062C411.943 88.2033 411.369 91.0571 409.531 92.91C407.693 94.7629 404.849 95.3541 401.655 94.7085C398.466 94.0638 394.993 92.1921 392.014 89.2239Z" fill="#FCC440" stroke="black"/>
<rect x="-0.7063" y="0.00204232" width="3.64917" height="56.7441" transform="matrix(-0.704253 0.709949 -0.708347 -0.705864 449.336 133.421)" fill="#FCC440" stroke="black"/>
<rect x="-0.7063" y="0.00204232" width="3" height="56.7441" transform="matrix(-0.704253 0.709949 -0.708347 -0.705864 449.421 133.044)" fill="#FCC440" stroke="black"/>
</g>
<defs>
<clipPath id="clip0">
<rect width="480" height="480" fill="white"/>
</clipPath>
</defs>
</svg>
